<svg clip-rule="evenodd" fill-rule="evenodd" stroke-linejoin="round" stroke-miterlimit="2" viewBox="0 0 69 73" xmlns="http://www.w3.org/2000/svg"><g fill="#00bddf" fill-rule="nonzero" transform="translate(-446.44 -833.59)"><path d="m504.574 847.161c-4.122 2.354-7.062 3.788-9.403 3.414 2.521-1.083 6.934-3.404 9.251-8.835.175-.413-1.078-.993-1.49-1.168-.412-.176-.888.016-1.063.427-1.79 4.198-4.218 6.394-6.259 7.549 2.38-4.361 3.802-10.429 3.802-14.958h-18.135-18.891c0 5.838 2.357 14.248 6.094 18.242h24.838c.005-.006.01-.013.016-.019.999.297 2.243.532 3.714.532 2.388 0 5.354-.614 8.754-2.554.389-.222.1-1.938-.123-2.327-.222-.389-.717-.525-1.105-.303z"/><path d="m490.33 884.89c-.394 4.188-3.949 6.719-7.091 6.98l.022 4.408h-4.254v-4.058s-4.833-.251-7.582-1.952l1.605-4.974s1.919 1.036 4.144 1.494 6.083.336 6.555-1.757c.459-2.028-.861-2.825-3.609-3.61-2.749-.785-7.549-3.031-7.985-6.741-.475-4.034 1.352-7.156 6.806-8.312v-4.254h4.254v3.731s4.364.338 5.999 1.385l-1.026 4.571s-4.121-1.374-6.935-1.179c-2.816.196-3.004 3.054-1.005 4.33 2.357 1.506 5.848 2.608 6.96 3.196 1.111.589 3.534 2.553 3.142 6.742zm3.276-31.234h-.172-25.071-.173c-12.737 5.061-21.75 17.486-21.75 32.026 0 19.03 15.428 20.674 34.458 20.674 19.032 0 34.458-1.644 34.458-20.674 0-14.54-9.011-26.965-21.75-32.026z"/></g></svg>