<?xml version="1.0" encoding="UTF-8" standalone="no"?>
<!DOCTYPE svg PUBLIC "-//W3C//DTD SVG 1.1//EN" "http://www.w3.org/Graphics/SVG/1.1/DTD/svg11.dtd">
<svg width="100%" height="100%" viewBox="0 0 53 51" version="1.1" xmlns="http://www.w3.org/2000/svg" xmlns:xlink="http://www.w3.org/1999/xlink" xml:space="preserve" xmlns:serif="http://www.serif.com/" style="fill-rule:evenodd;clip-rule:evenodd;stroke-linejoin:round;stroke-miterlimit:2;">
    <g transform="matrix(1,0,0,1,-574.685,-433.039)">
        <g transform="matrix(1,0,0,1,609.058,458.523)">
            <path d="M0,-0.005C0,4.497 -3.744,8.165 -8.345,8.165C-12.941,8.165 -16.69,4.497 -16.69,-0.005C-16.69,-4.505 -12.941,-8.165 -8.345,-8.165C-3.742,-8.163 0,-4.505 0,-0.005M10.527,-5.847L9.213,-8.968C9.213,-8.968 12.271,-15.864 11.998,-16.13L7.953,-20.081C7.671,-20.355 0.772,-17.206 0.772,-17.206L-2.411,-18.493C-2.411,-18.493 -5.223,-25.484 -5.609,-25.484L-11.321,-25.484C-11.717,-25.484 -14.32,-18.476 -14.32,-18.476L-17.498,-17.189C-17.498,-17.189 -24.543,-20.181 -24.813,-19.915L-28.854,-15.956C-29.134,-15.687 -25.918,-8.927 -25.918,-8.927L-27.231,-5.81C-27.231,-5.81 -34.373,-3.058 -34.373,-2.687L-34.373,2.911C-34.373,3.302 -27.214,5.852 -27.214,5.852L-25.9,8.964C-25.9,8.964 -28.957,15.856 -28.69,16.122L-24.644,20.083C-24.37,20.352 -17.467,17.202 -17.467,17.202L-14.28,18.493C-14.28,18.493 -11.47,25.479 -11.081,25.479L-5.37,25.479C-4.973,25.479 -2.369,18.472 -2.369,18.472L0.818,17.182C0.818,17.182 7.85,20.177 8.121,19.915L12.168,15.958C12.448,15.683 9.225,8.927 9.225,8.927L10.535,5.809C10.535,5.809 17.681,3.054 17.681,2.677L17.681,-2.917C17.682,-3.304 10.527,-5.847 10.527,-5.847" style="fill:rgb(0,189,223);fill-rule:nonzero;"/>
        </g>
    </g>
</svg>
