<?xml version="1.0" encoding="UTF-8" standalone="no"?>
<!DOCTYPE svg PUBLIC "-//W3C//DTD SVG 1.1//EN" "http://www.w3.org/Graphics/SVG/1.1/DTD/svg11.dtd">
<svg width="100%" height="100%" viewBox="0 0 53 51" version="1.1" xmlns="http://www.w3.org/2000/svg" xmlns:xlink="http://www.w3.org/1999/xlink" xml:space="preserve" xmlns:serif="http://www.serif.com/" style="fill-rule:evenodd;clip-rule:evenodd;stroke-linejoin:round;stroke-miterlimit:2;">
    <g transform="matrix(1,0,0,1,-679.032,-65.8908)">
        <g transform="matrix(1,0,0,1,730.531,94.7328)">
            <path d="M0,-7.537L-13.643,2.375L-8.431,18.412C-8.147,19.28 -8.458,20.232 -9.194,20.769C-9.564,21.036 -10,21.17 -10.435,21.17C-10.87,21.17 -11.305,21.036 -11.672,20.769L-25.314,10.857L-38.955,20.768C-39.696,21.305 -40.695,21.305 -41.435,20.768C-42.172,20.231 -42.482,19.28 -42.199,18.412L-36.988,2.373L-50.63,-7.537C-51.369,-8.074 -51.679,-9.024 -51.396,-9.893C-51.113,-10.762 -50.303,-11.35 -49.392,-11.35L-32.529,-11.35L-27.318,-27.386C-27.036,-28.255 -26.228,-28.842 -25.312,-28.842C-24.4,-28.842 -23.592,-28.255 -23.31,-27.386L-18.1,-11.35L-1.236,-11.35C-0.324,-11.35 0.485,-10.762 0.77,-9.893C1.048,-9.024 0.738,-8.074 0,-7.537" style="fill:rgb(0,189,223);fill-rule:nonzero;"/>
        </g>
    </g>
</svg>
