<svg clip-rule="evenodd" fill-rule="evenodd" stroke-linejoin="round" stroke-miterlimit="2" viewBox="0 0 53 51" xmlns="http://www.w3.org/2000/svg"><path d="m0-7.537-13.643 9.912 5.212 16.037c.284.868-.027 1.82-.763 2.357-.37.267-.806.401-1.241.401s-.87-.134-1.237-.401l-13.642-9.912-13.641 9.911c-.741.537-1.74.537-2.48 0-.737-.537-1.047-1.488-.764-2.356l5.211-16.039-13.642-9.91c-.739-.537-1.049-1.487-.766-2.356s1.093-1.457 2.004-1.457h16.863l5.211-16.036c.282-.869 1.09-1.456 2.006-1.456.912 0 1.72.587 2.002 1.456l5.21 16.036h16.864c.912 0 1.721.588 2.006 1.457.278.869-.032 1.819-.77 2.356" fill="#00bddf" fill-rule="nonzero" transform="translate(51.499 28.842)"/></svg>