<svg clip-rule="evenodd" fill-rule="evenodd" stroke-linejoin="round" stroke-miterlimit="2" viewBox="0 0 174 108" xmlns="http://www.w3.org/2000/svg"><path d="m401.059 370.139c.604-.965 1.689-1.569 5.026-1.569.765 0 1.61 0 2.573.08 5.711.322 6.637 1.53 6.797 1.932 0 .038.723 2.211-1.449 5.951-1.084 1.768-3.537 2.815-6.634 2.815-1.649 0-3.217-.322-4.303-.845-2.331-1.125-2.653-4.101-2.653-5.791 0-.765.241-2.011.643-2.573zm20.95.401c.161-.36 1.085-1.568 6.757-1.89 1.004-.08 1.847-.08 2.572-.08 3.379 0 4.423.604 5.065 1.569.363.562.644 1.808.644 2.573 0 1.69-.32 4.666-2.653 5.791-1.085.523-2.695.845-4.303.845-3.097 0-5.59-1.047-6.634-2.815-2.211-3.74-1.448-5.913-1.448-5.993zm-23.122-2.734 7.76-12.545c.283-.441.805-.563 1.248-.321l.041.041 3.98 2.773c.402.282.522.845.242 1.247-.283.401-.845.523-1.289.241l-3.174-2.211-6.394 10.292c2.533-.321 5.346-.401 8.322-.199l.202.039c2.292.16 3.578.241 5.066.925.362.161.724.321 1.047.482.562.283 1.367.604 1.808.723.201.042.361.081.524.122.242.039.683.039.884 0 .16-.041.362-.08.524-.122.439-.119 1.285-.44 1.847-.723.323-.161.684-.321 1.006-.482 1.528-.684 2.775-.765 5.068-.925l.2-.039c1.047-.042 2.091-.08 3.097-.122h.562c1.729.042 3.339.122 4.865.363l-6.393-10.334-3.176 2.211c-.402.322-1.006.202-1.287-.2-.281-.443-.161-1.006.242-1.288l3.98-2.734.04-.039c.443-.242 1.005-.123 1.248.321l7.839 12.626c.364.241.723.642.765 1.285 0 .202 0 .604-.042.967v.521c.042.726-.24 1.006-.441 1.208-.04.08-.121.16-.16.241-.081.161-.162.36-.202.604-.845 5.144-1.045 5.829-3.216 6.996-1.006.523-3.137.884-5.267.884-1.69 0-4.062-.2-6.073-1.247-2.896-1.527-3.981-6.755-4.02-6.957 0-.08-.123-.723-1.368-.723h-.08c-1.327 0-1.407.643-1.407.684-.041.241-1.127 5.469-4.063 6.996-1.969 1.047-4.383 1.247-6.031 1.247-2.132 0-4.262-.361-5.307-.884-2.133-1.167-2.333-1.852-3.177-6.996-.039-.244-.12-.443-.202-.604-.04-.081-.121-.161-.201-.241-.201-.202-.441-.482-.441-1.208v-1.488c.04-.762.562-1.205 1.004-1.407z" fill="#00bddf" fill-rule="nonzero" transform="matrix(4.16667 0 0 4.16667 -1657.85 -1478.41)"/></svg>