<svg clip-rule="evenodd" fill-rule="evenodd" stroke-linejoin="round" stroke-miterlimit="2" viewBox="0 0 59 60" xmlns="http://www.w3.org/2000/svg"><path d="m899.198 694.641c-1.471 0-3.341.179-5.554.537-2.303.373-3.889.801-4.846 1.314-.955.512-2.399 1.788-4.411 3.902-1.947 2.047-4.444 5.259-7.419 9.548-2.965 4.275-5.581 8.435-7.777 12.365-1.964 3.517-3.97 7.381-5.972 11.501-1.405-1.78-2.881-3.207-4.401-4.251-1.932-1.326-3.778-1.996-5.492-1.996-1.748 0-3.66.763-5.683 2.272-2.107 1.571-3.175 3.357-3.175 5.306 0 1.466.911 3.181 2.786 5.244 2.732 2.994 4.934 5.772 6.548 8.262 1.201 1.849 2.026 3.018 2.522 3.567.561.62 1.273 1.089 2.12 1.397.814.293 2.164.437 4.131.437 2.698 0 4.537-.288 5.621-.877 1.085-.594 1.941-1.436 2.545-2.504.547-.965 1.402-2.89 2.613-5.882 3.012-7.507 7.108-15.364 12.172-23.35 5.05-7.964 9.999-14.209 14.702-18.554 1.153-1.048 1.855-1.793 2.21-2.349.399-.624.601-1.349.601-2.158 0-1.023-.358-1.909-1.066-2.633-.714-.729-1.647-1.098-2.775-1.098z" fill="#00bddf" fill-rule="nonzero" transform="translate(-844.468 -694.641)"/></svg>