<svg clip-rule="evenodd" fill-rule="evenodd" stroke-linejoin="round" stroke-miterlimit="2" viewBox="0 0 53 51" xmlns="http://www.w3.org/2000/svg"><path d="m0-.005c0 4.502-3.744 8.17-8.345 8.17-4.596 0-8.345-3.668-8.345-8.17 0-4.5 3.749-8.16 8.345-8.16 4.603.002 8.345 3.66 8.345 8.16m10.527-5.842-1.314-3.121s3.058-6.896 2.785-7.162l-4.045-3.951c-.282-.274-7.181 2.875-7.181 2.875l-3.183-1.287s-2.812-6.991-3.198-6.991h-5.712c-.396 0-2.999 7.008-2.999 7.008l-3.178 1.287s-7.045-2.992-7.315-2.726l-4.041 3.959c-.28.269 2.936 7.029 2.936 7.029l-1.313 3.117s-7.142 2.752-7.142 3.123v5.598c0 .391 7.159 2.941 7.159 2.941l1.314 3.112s-3.057 6.892-2.79 7.158l4.046 3.961c.274.269 7.177-2.881 7.177-2.881l3.187 1.291s2.81 6.986 3.199 6.986h5.711c.397 0 3.001-7.007 3.001-7.007l3.187-1.29s7.032 2.995 7.303 2.733l4.047-3.957c.28-.275-2.943-7.031-2.943-7.031l1.31-3.118s7.146-2.755 7.146-3.132v-5.594c.001-.387-7.154-2.93-7.154-2.93" fill="#00bddf" fill-rule="nonzero" transform="translate(34.373 25.484)"/></svg>