<svg xmlns:xlink="http://www.w3.org/1999/xlink" clip-rule="evenodd" fill-rule="evenodd" stroke-linejoin="round" stroke-miterlimit="2" viewBox="0 0 185 316" xmlns="http://www.w3.org/2000/svg"><clipPath id="a"><path clip-rule="evenodd" d="m263.462 678.364h184.591v315.325h-184.591z"/></clipPath><g transform="translate(-263.462 -678.364)"><path d="m263.462 678.364h184.591v315.325h-184.591z" fill="none"/><g clip-path="url(#a)" fill="#00bddf" fill-rule="nonzero"><path d="m372.097 688.166c.048-3.934-1.81-7.44-4.71-9.661-.427-.327-1.047-.02-1.047.517v8.333l-6.235 3.831-6.234-3.831v-8.334c0-.536-.62-.844-1.045-.518-2.823 2.159-4.666 5.538-4.713 9.368-.061 4.982 2.925 9.29 7.228 11.154v33.871c-4.202 1.824-7.168 5.976-7.228 10.852-.048 3.934 1.81 7.44 4.711 9.66.426.327 1.047.02 1.047-.517v-8.333l6.234-3.829 6.235 3.829v8.334c0 .536.619.845 1.045.519 2.822-2.159 4.665-5.539 4.712-9.368.061-4.982-2.925-9.29-7.227-11.155v-33.871c4.2-1.824 7.167-5.975 7.227-10.851z" transform="matrix(4.16667 0 0 4.16667 -1101.89 -2147.81)"/><path d="m339.818 748.858h-1.508v-27.573h1.508zm-4.36 0h-1.507v-27.573h1.507zm-4.359 0h-1.507v-27.573h1.507zm9.762-35.725h-3.748v-22.287l1.639-2.595-1.982-9.883h-3.963l-1.982 9.883 1.639 2.595v22.287h-3.747c-.509 0-.921.47-.921 1.05v1.797c0 .581.412 1.05.921 1.05h.208c-.712 1.218-1.129 2.68-1.129 4.253v25.08c0 4.242 3.018 7.683 6.742 7.683h.502c3.723 0 6.742-3.441 6.742-7.683v-25.08c0-1.573-.417-3.035-1.129-4.253h.208c.509 0 .921-.469.921-1.05v-1.797c0-.58-.412-1.05-.921-1.05z" transform="matrix(4.16667 0 0 4.16667 -1101.89 -2147.81)"/></g></g></svg>
