<?xml version="1.0" encoding="UTF-8" standalone="no"?>
<!DOCTYPE svg PUBLIC "-//W3C//DTD SVG 1.1//EN" "http://www.w3.org/Graphics/SVG/1.1/DTD/svg11.dtd">
<svg width="100%" height="100%" viewBox="0 0 185 316" version="1.1" xmlns="http://www.w3.org/2000/svg" xmlns:xlink="http://www.w3.org/1999/xlink" xml:space="preserve" xmlns:serif="http://www.serif.com/" style="fill-rule:evenodd;clip-rule:evenodd;stroke-linejoin:round;stroke-miterlimit:2;">
    <g id="Artboard1" transform="matrix(1,0,0,1,-263.462,-678.364)">
        <rect x="263.462" y="678.364" width="184.591" height="315.325" style="fill:none;"/>
        <clipPath id="_clip1">
            <rect x="263.462" y="678.364" width="184.591" height="315.325"/>
        </clipPath>
        <g clip-path="url(#_clip1)">
            <g transform="matrix(4.16667,0,0,4.16667,-1101.89,-2147.81)">
                <path d="M372.097,688.166C372.145,684.232 370.287,680.726 367.387,678.505C366.96,678.178 366.34,678.485 366.34,679.022L366.34,687.355L360.105,691.186L353.871,687.355L353.871,679.021C353.871,678.485 353.251,678.177 352.826,678.503C350.003,680.662 348.16,684.041 348.113,687.871C348.052,692.853 351.038,697.161 355.341,699.025L355.341,732.896C351.139,734.72 348.173,738.872 348.113,743.748C348.065,747.682 349.923,751.188 352.824,753.408C353.25,753.735 353.871,753.428 353.871,752.891L353.871,744.558L360.105,740.729L366.34,744.558L366.34,752.892C366.34,753.428 366.959,753.737 367.385,753.411C370.207,751.252 372.05,747.872 372.097,744.043C372.158,739.061 369.172,734.753 364.87,732.888L364.87,699.017C369.07,697.193 372.037,693.042 372.097,688.166Z" style="fill:rgb(0,189,223);fill-rule:nonzero;"/>
            </g>
            <g transform="matrix(4.16667,0,0,4.16667,-1101.89,-2147.81)">
                <path d="M339.818,748.858L338.31,748.858L338.31,721.285L339.818,721.285L339.818,748.858ZM335.458,748.858L333.951,748.858L333.951,721.285L335.458,721.285L335.458,748.858ZM331.099,748.858L329.592,748.858L329.592,721.285L331.099,721.285L331.099,748.858ZM340.861,713.133L337.113,713.133L337.113,690.846L338.752,688.251L336.77,678.368L332.807,678.368L330.825,688.251L332.464,690.846L332.464,713.133L328.717,713.133C328.208,713.133 327.796,713.603 327.796,714.183L327.796,715.98C327.796,716.561 328.208,717.03 328.717,717.03L328.925,717.03C328.213,718.248 327.796,719.71 327.796,721.283L327.796,746.363C327.796,750.605 330.814,754.046 334.538,754.046L335.04,754.046C338.763,754.046 341.782,750.605 341.782,746.363L341.782,721.283C341.782,719.71 341.365,718.248 340.653,717.03L340.861,717.03C341.37,717.03 341.782,716.561 341.782,715.98L341.782,714.183C341.782,713.603 341.37,713.133 340.861,713.133Z" style="fill:rgb(0,189,223);fill-rule:nonzero;"/>
            </g>
        </g>
    </g>
</svg>
