<?xml version="1.0" encoding="UTF-8" standalone="no"?>
<!DOCTYPE svg PUBLIC "-//W3C//DTD SVG 1.1//EN" "http://www.w3.org/Graphics/SVG/1.1/DTD/svg11.dtd">
<svg width="100%" height="100%" viewBox="0 0 69 73" version="1.1" xmlns="http://www.w3.org/2000/svg" xmlns:xlink="http://www.w3.org/1999/xlink" xml:space="preserve" xmlns:serif="http://www.serif.com/" style="fill-rule:evenodd;clip-rule:evenodd;stroke-linejoin:round;stroke-miterlimit:2;">
    <g transform="matrix(1,0,0,1,-446.44,-833.59)">
        <path d="M504.574,847.161C500.452,849.515 497.512,850.949 495.171,850.575C497.692,849.492 502.105,847.171 504.422,841.74C504.597,841.327 503.344,840.747 502.932,840.572C502.52,840.396 502.044,840.588 501.869,840.999C500.079,845.197 497.651,847.393 495.61,848.548C497.99,844.187 499.412,838.119 499.412,833.59L481.277,833.59L462.386,833.59C462.386,839.428 464.743,847.838 468.48,851.832L493.318,851.832C493.323,851.826 493.328,851.819 493.334,851.813C494.333,852.11 495.577,852.345 497.048,852.345C499.436,852.345 502.402,851.731 505.802,849.791C506.191,849.569 505.902,847.853 505.679,847.464C505.457,847.075 504.962,846.939 504.574,847.161Z" style="fill:rgb(0,189,223);fill-rule:nonzero;"/>
        <path d="M490.33,884.89C489.936,889.078 486.381,891.609 483.239,891.87L483.261,896.278L479.007,896.278L479.007,892.22C479.007,892.22 474.174,891.969 471.425,890.268L473.03,885.294C473.03,885.294 474.949,886.33 477.174,886.788C479.399,887.246 483.257,887.124 483.729,885.031C484.188,883.003 482.868,882.206 480.12,881.421C477.371,880.636 472.571,878.39 472.135,874.68C471.66,870.646 473.487,867.524 478.941,866.368L478.941,862.114L483.195,862.114L483.195,865.845C483.195,865.845 487.559,866.183 489.194,867.23L488.168,871.801C488.168,871.801 484.047,870.427 481.233,870.622C478.417,870.818 478.229,873.676 480.228,874.952C482.585,876.458 486.076,877.56 487.188,878.148C488.299,878.737 490.722,880.701 490.33,884.89ZM493.606,853.656L493.434,853.656L468.363,853.656L468.19,853.656C455.453,858.717 446.44,871.142 446.44,885.682C446.44,904.712 461.868,906.356 480.898,906.356C499.93,906.356 515.356,904.712 515.356,885.682C515.356,871.142 506.345,858.717 493.606,853.656Z" style="fill:rgb(0,189,223);fill-rule:nonzero;"/>
    </g>
</svg>
